<?xml version="1.0" encoding="UTF-8" standalone="no"?>
<!-- Created with Inkscape (http://www.inkscape.org/) -->

<svg
   width="1200"
   height="250"
   viewBox="0 0 317.49997 66.145825"
   version="1.1"
   id="svg1"
   inkscape:version="1.3 (1:1.3+202307231459+0e150ed6c4)"
   sodipodi:docname="logo.svg"
   xml:space="preserve"
   xmlns:inkscape="http://www.inkscape.org/namespaces/inkscape"
   xmlns:sodipodi="http://sodipodi.sourceforge.net/DTD/sodipodi-0.dtd"
   xmlns="http://www.w3.org/2000/svg"
   xmlns:svg="http://www.w3.org/2000/svg"><sodipodi:namedview
     id="namedview1"
     pagecolor="#ffffff"
     bordercolor="#000000"
     borderopacity="0.25"
     inkscape:showpageshadow="2"
     inkscape:pageopacity="0.0"
     inkscape:pagecheckerboard="0"
     inkscape:deskcolor="#d1d1d1"
     inkscape:document-units="mm"
     inkscape:zoom="0.46992642"
     inkscape:cx="671.3817"
     inkscape:cy="736.28548"
     inkscape:window-width="1920"
     inkscape:window-height="954"
     inkscape:window-x="0"
     inkscape:window-y="0"
     inkscape:window-maximized="1"
     inkscape:current-layer="layer1"
     showgrid="false" /><defs
     id="defs1"><marker
       style="overflow:visible"
       id="Triangle"
       refX="0"
       refY="0"
       orient="auto-start-reverse"
       inkscape:stockid="Triangle arrow"
       markerWidth="1"
       markerHeight="1"
       viewBox="0 0 1 1"
       inkscape:isstock="true"
       inkscape:collect="always"
       preserveAspectRatio="xMidYMid"><path
         transform="scale(0.5)"
         style="fill:context-stroke;fill-rule:evenodd;stroke:context-stroke;stroke-width:1pt"
         d="M 5.77,0 -2.88,5 V -5 Z"
         id="path135" /></marker><filter
       inkscape:collect="always"
       style="color-interpolation-filters:sRGB"
       id="filter6"
       x="-0.43561825"
       y="-0.52101568"
       width="1.8712365"
       height="2.0420314"><feGaussianBlur
         inkscape:collect="always"
         stdDeviation="1.036316"
         id="feGaussianBlur6" /></filter><filter
       inkscape:collect="always"
       style="color-interpolation-filters:sRGB"
       id="filter7"
       x="-0.38359911"
       y="-0.45879909"
       width="1.7671982"
       height="1.9175982"><feGaussianBlur
         inkscape:collect="always"
         stdDeviation="0.91256534"
         id="feGaussianBlur7" /></filter><filter
       inkscape:collect="always"
       style="color-interpolation-filters:sRGB"
       id="filter8"
       x="-0.64934688"
       y="-0.26706704"
       width="2.2986938"
       height="1.5341341"><feGaussianBlur
         inkscape:collect="always"
         stdDeviation="2.366465"
         id="feGaussianBlur8" /></filter><filter
       inkscape:collect="always"
       style="color-interpolation-filters:sRGB"
       id="filter8-0"
       x="-0.64934688"
       y="-0.26706704"
       width="2.2986938"
       height="1.5341341"><feGaussianBlur
         inkscape:collect="always"
         stdDeviation="2.366465"
         id="feGaussianBlur8-4" /></filter><filter
       inkscape:collect="always"
       style="color-interpolation-filters:sRGB"
       id="filter8-0-2"
       x="-0.64934688"
       y="-0.26706704"
       width="2.2986938"
       height="1.5341341"><feGaussianBlur
         inkscape:collect="always"
         stdDeviation="2.366465"
         id="feGaussianBlur8-4-7" /></filter><marker
       style="overflow:visible"
       id="Triangle-8"
       refX="0"
       refY="0"
       orient="auto-start-reverse"
       inkscape:stockid="Triangle arrow"
       markerWidth="1"
       markerHeight="1"
       viewBox="0 0 1 1"
       inkscape:isstock="true"
       inkscape:collect="always"
       preserveAspectRatio="xMidYMid"><path
         transform="scale(0.5)"
         style="fill:context-stroke;fill-rule:evenodd;stroke:context-stroke;stroke-width:1pt"
         d="M 5.77,0 -2.88,5 V -5 Z"
         id="path135-5" /></marker></defs><g
     inkscape:label="Layer 1"
     inkscape:groupmode="layer"
     id="layer1"><g
       id="g14"
       transform="translate(155.03982,-72.397976)"><path
         style="fill:#ffc070;fill-opacity:1;stroke:none;stroke-width:1.35587;stroke-linecap:round;stroke-linejoin:round;stroke-dasharray:none;stroke-opacity:1"
         d="m 63.42829,95.619601 4.631325,-3.586846 3.185797,-0.936186 5.13958,-0.463532 6.832342,-2.228877 5.514777,-1.558646 7.289641,-2.161406 0.638049,1.186156 4.078409,-2.862867 6.88747,-2.444093 5.12283,-1.436897 3.92739,2.024174 0.45823,4.225952 4.0406,11.497411 4.74766,12.592756 -3.54056,4.06019 -3.64819,2.14713 -3.71959,-1.0474 -1.12349,-1.31899 -1.68823,1.15292 -10.12485,2.83796 -12.010058,3.24796 -8.957527,3.19653 -2.017699,3.64879 -6.609663,1.14537 -2.503193,-3.05704 -6.867208,-23.44091 -1.938593,-3.089186 z"
         id="path6" /><path
         style="mix-blend-mode:normal;fill:#d17a30;fill-opacity:1;stroke:none;stroke-width:1;stroke-linecap:round;stroke-linejoin:round;stroke-dasharray:none;stroke-opacity:1;filter:url(#filter6)"
         d="m 68.565154,100.59499 -1.117814,-0.897883 0.404402,-1.72401 3.172826,-0.17677 2.132263,2.408003 -1.242904,2.07618 -1.98683,0.28949 -0.327152,-2.28649 z"
         id="path5"
         transform="matrix(1.2903789,-0.41629755,0.41629755,1.2903789,-62.218469,-1.7139217)" /><path
         style="mix-blend-mode:normal;fill:#d17a30;fill-opacity:1;stroke:none;stroke-width:1;stroke-linecap:round;stroke-linejoin:round;stroke-dasharray:none;stroke-opacity:1;filter:url(#filter7)"
         d="m 102.11564,100.80974 1.11782,-0.897883 -0.40441,-1.72401 -3.172824,-0.17677 -2.13226,2.408003 1.2429,2.07618 1.986834,0.28949 0.32715,-2.28649 z"
         id="path5-4"
         transform="matrix(1.2903789,-0.41629755,0.41629755,1.2903789,-62.218469,-1.7139217)" /><rect
         style="mix-blend-mode:normal;fill:#d07400;fill-opacity:1;stroke:none;stroke-width:1;stroke-linecap:round;stroke-linejoin:round;stroke-dasharray:none;stroke-opacity:1;filter:url(#filter8)"
         id="rect8"
         width="8.7465057"
         height="21.266256"
         x="87.056534"
         y="174.1268"
         transform="matrix(0.86414587,-0.27878774,0.3282658,1.0175108,-66.453234,-49.008594)" /><rect
         style="mix-blend-mode:normal;fill:#d07400;fill-opacity:1;stroke:none;stroke-width:1;stroke-linecap:round;stroke-linejoin:round;stroke-dasharray:none;stroke-opacity:1;filter:url(#filter8-0)"
         id="rect8-7"
         width="8.7465057"
         height="21.266256"
         x="87.056534"
         y="174.1268"
         transform="matrix(0.86414587,-0.27878774,0.3282658,1.0175108,-24.338343,-62.155337)"
         inkscape:transform-center-x="45.014697"
         inkscape:transform-center-y="10.029232" /><rect
         style="mix-blend-mode:normal;fill:#d07400;fill-opacity:1;stroke:none;stroke-width:1;stroke-linecap:round;stroke-linejoin:round;stroke-dasharray:none;stroke-opacity:1;filter:url(#filter8-0-2)"
         id="rect8-7-2"
         width="8.7465057"
         height="21.266256"
         x="87.056534"
         y="174.1268"
         transform="matrix(2.4542846,-0.79179277,0.3282658,1.0175108,-191.48316,-12.244176)"
         inkscape:transform-center-x="125.43151"
         inkscape:transform-center-y="35.973022" /><path
         style="fill:none;stroke:#ac660f;stroke-width:1.35587;stroke-linecap:round;stroke-linejoin:round;stroke-dasharray:none;stroke-opacity:1"
         d="m 74.105016,90.470165 c 0,0 -4.104207,-0.06096 -7.623218,2.375179 -3.519017,2.436115 -5.007209,4.307448 -4.719257,6.634688 0.287951,2.327248 3.598576,3.555648 4.961143,3.358498 1.36257,-0.19714 6.070776,-1.61504 6.751284,-3.979761 0.680505,-2.364735 -0.753907,-4.178258 -4.003175,-3.996654 -3.249265,0.181603 -4.296443,3.222649 -3.67537,3.582851 0.621076,0.360214 1.075343,1.643544 3.318596,0.62423"
         id="path2" /><path
         style="fill:none;stroke:#ac660f;stroke-width:1.35587;stroke-linecap:round;stroke-linejoin:round;stroke-dasharray:none;stroke-opacity:1"
         d="m 74.304738,90.600585 c 0,0 -0.01765,0.563244 3.780659,-0.767708 3.7983,-1.330963 5.651227,-2.229541 5.651227,-2.229541 l 1.7918,2.2827 -0.399403,-2.379202 10.398682,-3.026567 1.451759,1.735566 1.555347,-2.434093 1.083342,0.928123 0.134869,-1.493468 c 0,0 9.32623,-3.387049 10.38574,-3.772047 1.05953,-0.384988 1.95144,-0.437848 2.69473,-0.20539 0.74328,0.232459 2.68513,0.762503 3.38417,2.118051 0.69906,1.355541 0.77029,3.082062 -0.36494,4.220285 -1.13524,1.138242 -3.07159,3.23052 -5.23001,3.678456 -2.15843,0.447922 -4.48053,-0.481051 -4.83992,-0.954069 -0.35941,-0.473026 -1.00489,-2.161456 -0.16252,-3.46174 0.84237,-1.300299 1.2818,-1.924106 1.87176,-2.186312 0.58999,-0.262149 1.36133,-0.526663 1.71309,-0.589996 0.35174,-0.06332 2.30066,-0.0064 2.84502,0.912727 0.54434,0.9191 -0.65622,2.671298 -2.08201,3.109256"
         id="path3" /><path
         style="fill:none;stroke:#ac660f;stroke-width:1.35587;stroke-linecap:round;stroke-linejoin:round;stroke-dasharray:none;stroke-opacity:1"
         d="m 73.542329,96.941874 8.194476,25.794556"
         id="path3-1"
         sodipodi:nodetypes="cc" /><path
         style="fill:none;stroke:#ac660f;stroke-width:1.35587;stroke-linecap:round;stroke-linejoin:round;stroke-dasharray:none;stroke-opacity:1"
         d="m 105.70586,88.17233 8.46974,25.53171"
         id="path3-1-4"
         sodipodi:nodetypes="cc" /><path
         style="fill:none;stroke:#ac660f;stroke-width:1.35587;stroke-linecap:round;stroke-linejoin:round;stroke-dasharray:none;stroke-opacity:1"
         d="m 62.383703,101.08037 c 0,0 5.982444,15.81489 7.682567,25.2993 0,0 1.882942,3.43841 6.858895,1.5599 4.97595,-1.87852 4.859262,-4.64189 4.859262,-4.64189 l 10.131808,-3.37484 0.274244,-1.03474 0.588467,1.02218 0.501863,-1.6677 1.60109,1.18293 5.887841,-1.95689 -0.0457,-1.93792 0.93912,1.58645 0.0405,-4.13697 1.07065,3.86799 1.2312,-0.0547 c 0,0 1.24612,-0.25182 2.13172,-0.49209 0.88563,-0.24022 6.5447,-1.68059 7.1162,-2.21584 0.57147,-0.53532 0.67966,-0.95934 0.67966,-0.95934 0,0 0.61878,1.67373 1.25462,1.73395 0.63591,0.0602 3.10995,1.12992 4.36119,0.43563 1.25123,-0.69429 3.50947,-1.47416 4.68671,-3.53049 1.17726,-2.05636 2.04732,-1.98845 1.60534,-3.06103 -0.44206,-1.07254 -0.57733,-1.45523 -1.75928,-3.84694 -1.18189,-2.39174 -7.35389,-18.374713 -7.36325,-21.280425"
         id="path4"
         sodipodi:nodetypes="ccsccccccccccccsscssscsc" /><path
         style="fill:#734100;fill-opacity:1;stroke:none;stroke-width:1;stroke-linecap:round;stroke-linejoin:round;stroke-dasharray:none;stroke-opacity:1"
         d="m 81.939782,101.58425 c -1.126925,1.73425 -2.629578,2.67458 -2.629578,2.67458 0,0 -1.182196,2.17182 -0.968973,2.7423 0.213225,0.57047 0.609374,3.53012 2.95193,3.59043 2.342557,0.0603 0.83559,1.79672 3.880535,-2.00617 3.044946,-3.80287 4.937689,-3.9334 2.878563,-6.81498 -2.059128,-2.881572 -6.52211,-3.181318 -6.383164,-1.960893 0.138946,1.220423 0.270687,1.774733 0.270687,1.774733 z"
         id="path8" /><path
         style="fill:#734100;fill-opacity:1;stroke:none;stroke-width:0.439812;stroke-linecap:round;stroke-linejoin:round;stroke-dasharray:none;stroke-opacity:1"
         d="m 90.636963,94.991405 c -0.801114,-0.430874 -1.26791,-1.055301 -1.26791,-1.055301 0,0 -0.99491,-0.439188 -1.237201,-0.324985 -0.242293,0.114198 -1.525115,0.395463 -1.466361,1.424412 0.05875,1.02895 -0.757132,0.431581 1.020424,1.62791 1.777551,1.19633 1.903593,2.021185 3.091725,1.01387 1.188135,-1.007315 1.157223,-2.974368 0.627355,-2.869087 -0.529866,0.105282 -0.768032,0.18318 -0.768032,0.183181 z"
         id="path8-4"
         inkscape:transform-center-x="-0.16408639"
         inkscape:transform-center-y="0.53825804" /><path
         style="fill:#734100;fill-opacity:1;stroke:none;stroke-width:1;stroke-linecap:round;stroke-linejoin:round;stroke-dasharray:none;stroke-opacity:1"
         d="m 102.69177,106.77431 c 4.31894,-2.84638 3.48419,-3.92234 1.86565,-5.5251 -1.61854,-1.602771 -1.43589,-3.596555 -1.90254,-5.272241 -0.46663,-1.675696 -2.968015,-4.82226 -5.712195,-2.945178 -1.632155,1.116433 1.47283,3.759394 1.345729,7.056259 -0.1271,3.29687 0.657388,4.94772 -1.776187,6.69245 -2.433571,1.74474 -3.712956,5.35417 -2.410883,6.48905 1.302082,1.13492 3.806005,-0.57532 5.085104,-2.62674 1.279092,-2.05142 3.505322,-3.8685 3.505322,-3.8685 z"
         id="path9"
         sodipodi:nodetypes="csssssssc" /><path
         style="fill:none;fill-opacity:1;stroke:#734100;stroke-width:0.3;stroke-linecap:square;stroke-linejoin:miter;stroke-miterlimit:3.8;stroke-dasharray:0.3, 0.9;stroke-dashoffset:0.99;stroke-opacity:1"
         d="m 86.568661,107.67754 c 0,0 2.238523,2.32336 7.194936,2.07382"
         id="path10" /><path
         style="fill:none;fill-opacity:1;stroke:#734100;stroke-width:0.3;stroke-linecap:square;stroke-linejoin:miter;stroke-miterlimit:3.8;stroke-dasharray:0.3, 0.9;stroke-dashoffset:0.99;stroke-opacity:1"
         d="m 104.06471,98.801972 c 2.58686,-2.848165 -0.9786,-7.82055 -2.59821,-7.856179 -2.38096,-0.05239 -5.739547,0.501571 -6.992131,0.206923 -1.028255,-0.241878 -4.094596,2.55302 -5.14072,3.750497"
         id="path10-6"
         inkscape:transform-center-x="-2.9233564"
         inkscape:transform-center-y="-10.441608"
         sodipodi:nodetypes="cssc" /><path
         style="fill:none;fill-opacity:1;stroke:#f4ac54;stroke-width:0.1;stroke-linecap:square;stroke-linejoin:miter;stroke-miterlimit:3.8;stroke-dasharray:none;stroke-dashoffset:0.989999;stroke-opacity:1"
         d="m 79.675034,107.16809 0.285589,-0.71535 0.473339,0.44497"
         id="path11" /><path
         style="fill:none;fill-opacity:1;stroke:#f4ac54;stroke-width:0.1;stroke-linecap:square;stroke-linejoin:miter;stroke-miterlimit:3.8;stroke-dasharray:none;stroke-dashoffset:0.989999;stroke-opacity:1"
         d="m 80.133719,106.62368 0.285589,-0.71535 0.473338,0.44498"
         id="path11-1" /><path
         style="fill:none;fill-opacity:1;stroke:#f4ac54;stroke-width:0.1;stroke-linecap:square;stroke-linejoin:miter;stroke-miterlimit:3.8;stroke-dasharray:none;stroke-dashoffset:0.989999;stroke-opacity:1"
         d="m 80.673028,106.06822 0.28559,-0.71535 0.473338,0.44497"
         id="path11-15" /><path
         style="fill:none;fill-opacity:1;stroke:#f4ac54;stroke-width:0.1;stroke-linecap:square;stroke-linejoin:miter;stroke-miterlimit:3.8;stroke-dasharray:none;stroke-dashoffset:0.989999;stroke-opacity:1"
         d="m 81.200219,105.50951 0.28559,-0.71534 0.473338,0.44497"
         id="path11-6" /><path
         style="fill:none;fill-opacity:1;stroke:#f4ac54;stroke-width:0.1;stroke-linecap:square;stroke-linejoin:miter;stroke-miterlimit:3.8;stroke-dasharray:none;stroke-dashoffset:0.989999;stroke-opacity:1"
         d="m 81.218325,107.0681 0.285589,-0.71535 0.473339,0.44497"
         id="path11-5" /><path
         style="fill:none;fill-opacity:1;stroke:#f4ac54;stroke-width:0.1;stroke-linecap:square;stroke-linejoin:miter;stroke-miterlimit:3.8;stroke-dasharray:none;stroke-dashoffset:0.989999;stroke-opacity:1"
         d="m 82.383597,106.63755 0.285589,-0.71534 0.473339,0.44497"
         id="path11-4" /><path
         style="fill:none;fill-opacity:1;stroke:#f4ac54;stroke-width:0.1;stroke-linecap:square;stroke-linejoin:miter;stroke-miterlimit:3.8;stroke-dasharray:none;stroke-dashoffset:0.989999;stroke-opacity:1"
         d="m 81.714237,106.53088 0.28559,-0.71535 0.473338,0.44497"
         id="path11-9" /><path
         style="fill:none;fill-opacity:1;stroke:#f4ac54;stroke-width:0.1;stroke-linecap:square;stroke-linejoin:miter;stroke-miterlimit:3.8;stroke-dasharray:none;stroke-dashoffset:0.989999;stroke-opacity:1"
         d="m 87.87169,95.544367 0.285589,-0.715348 0.473339,0.444972"
         id="path11-9-2" /><path
         style="fill:none;fill-opacity:1;stroke:#f4ac54;stroke-width:0.1;stroke-linecap:square;stroke-linejoin:miter;stroke-miterlimit:3.8;stroke-dasharray:none;stroke-dashoffset:0.989999;stroke-opacity:1"
         d="m 88.72402,95.631359 0.28559,-0.715348 0.473338,0.444972"
         id="path11-9-5" /><path
         style="fill:none;fill-opacity:1;stroke:#f4ac54;stroke-width:0.1;stroke-linecap:square;stroke-linejoin:miter;stroke-miterlimit:3.8;stroke-dasharray:none;stroke-dashoffset:0.989999;stroke-opacity:1"
         d="m 89.471336,96.224297 0.285589,-0.715348 0.473338,0.444972"
         id="path11-9-8" /><path
         style="fill:none;fill-opacity:1;stroke:#f4ac54;stroke-width:0.1;stroke-linecap:square;stroke-linejoin:miter;stroke-miterlimit:3.8;stroke-dasharray:none;stroke-dashoffset:0.989999;stroke-opacity:1"
         d="m 88.279692,96.33073 0.285589,-0.715348 0.473339,0.444972"
         id="path11-9-53" /><path
         style="fill:none;fill-opacity:1;stroke:#f4ac54;stroke-width:0.1;stroke-linecap:square;stroke-linejoin:miter;stroke-miterlimit:3.8;stroke-dasharray:none;stroke-dashoffset:0.989999;stroke-opacity:1"
         d="m 97.995974,96.579721 0.285589,-0.715347 0.473344,0.44497"
         id="path11-8" /><path
         style="fill:none;fill-opacity:1;stroke:#f4ac54;stroke-width:0.1;stroke-linecap:square;stroke-linejoin:miter;stroke-miterlimit:3.8;stroke-dasharray:none;stroke-dashoffset:0.989999;stroke-opacity:1"
         d="m 98.454658,96.035314 0.285589,-0.715347 0.473344,0.44497"
         id="path11-1-8" /><path
         style="fill:none;fill-opacity:1;stroke:#f4ac54;stroke-width:0.1;stroke-linecap:square;stroke-linejoin:miter;stroke-miterlimit:3.8;stroke-dasharray:none;stroke-dashoffset:0.989999;stroke-opacity:1"
         d="m 98.993971,95.479847 0.285588,-0.715347 0.473335,0.444973"
         id="path11-15-5" /><path
         style="fill:none;fill-opacity:1;stroke:#f4ac54;stroke-width:0.1;stroke-linecap:square;stroke-linejoin:miter;stroke-miterlimit:3.8;stroke-dasharray:none;stroke-dashoffset:0.989999;stroke-opacity:1"
         d="m 99.521164,94.921145 0.285589,-0.715347 0.473337,0.444973"
         id="path11-6-0" /><path
         style="fill:none;fill-opacity:1;stroke:#f4ac54;stroke-width:0.1;stroke-linecap:square;stroke-linejoin:miter;stroke-miterlimit:3.8;stroke-dasharray:none;stroke-dashoffset:0.989999;stroke-opacity:1"
         d="m 99.539266,96.479729 0.285589,-0.715348 0.473345,0.44497"
         id="path11-5-9" /><path
         style="fill:none;fill-opacity:1;stroke:#f4ac54;stroke-width:0.1;stroke-linecap:square;stroke-linejoin:miter;stroke-miterlimit:3.8;stroke-dasharray:none;stroke-dashoffset:0.989999;stroke-opacity:1"
         d="m 100.70454,96.049185 0.28559,-0.715348 0.47333,0.444974"
         id="path11-4-6" /><path
         style="fill:none;fill-opacity:1;stroke:#f4ac54;stroke-width:0.1;stroke-linecap:square;stroke-linejoin:miter;stroke-miterlimit:3.8;stroke-dasharray:none;stroke-dashoffset:0.989999;stroke-opacity:1"
         d="m 100.03518,95.94251 0.28558,-0.715348 0.47335,0.44497"
         id="path11-9-3" /><path
         style="fill:none;fill-opacity:1;stroke:#f4ac54;stroke-width:0.1;stroke-linecap:square;stroke-linejoin:miter;stroke-miterlimit:3.8;stroke-dasharray:none;stroke-dashoffset:0.989999;stroke-opacity:1"
         d="m 101.92784,97.105785 -0.6498,-0.413574 -0.12405,0.637696"
         id="path11-11" /><path
         style="fill:none;fill-opacity:1;stroke:#f4ac54;stroke-width:0.1;stroke-linecap:square;stroke-linejoin:miter;stroke-miterlimit:3.8;stroke-dasharray:none;stroke-dashoffset:0.989999;stroke-opacity:1"
         d="m 101.23748,96.932077 -0.6498,-0.413573 -0.12405,0.637694"
         id="path11-1-5" /><path
         style="fill:none;fill-opacity:1;stroke:#f4ac54;stroke-width:0.1;stroke-linecap:square;stroke-linejoin:miter;stroke-miterlimit:3.8;stroke-dasharray:none;stroke-dashoffset:0.989999;stroke-opacity:1"
         d="m 100.47523,96.796519 -0.649798,-0.413577 -0.124047,0.637699"
         id="path11-15-9" /><path
         style="fill:none;fill-opacity:1;stroke:#f4ac54;stroke-width:0.1;stroke-linecap:square;stroke-linejoin:miter;stroke-miterlimit:3.8;stroke-dasharray:none;stroke-dashoffset:0.989999;stroke-opacity:1"
         d="M 99.720933,96.651247 99.071135,96.23767 98.947079,96.875372"
         id="path11-6-8" /><path
         style="fill:none;fill-opacity:1;stroke:#f4ac54;stroke-width:0.1;stroke-linecap:square;stroke-linejoin:miter;stroke-miterlimit:3.8;stroke-dasharray:none;stroke-dashoffset:0.989999;stroke-opacity:1"
         d="m 100.61708,97.926556 -0.649798,-0.413578 -0.124046,0.6377"
         id="path11-5-4" /><path
         style="fill:none;fill-opacity:1;stroke:#f4ac54;stroke-width:0.1;stroke-linecap:square;stroke-linejoin:miter;stroke-miterlimit:3.8;stroke-dasharray:none;stroke-dashoffset:0.989999;stroke-opacity:1"
         d="m 99.419895,98.25818 -0.649798,-0.413578 -0.124047,0.6377"
         id="path11-4-8" /><path
         style="fill:none;fill-opacity:1;stroke:#f4ac54;stroke-width:0.1;stroke-linecap:square;stroke-linejoin:miter;stroke-miterlimit:3.8;stroke-dasharray:none;stroke-dashoffset:0.989999;stroke-opacity:1"
         d="m 99.900716,97.780437 -0.649797,-0.413575 -0.124057,0.637699"
         id="path11-9-1" /><path
         style="fill:none;fill-opacity:1;stroke:#f4ac54;stroke-width:0.1;stroke-linecap:square;stroke-linejoin:miter;stroke-miterlimit:3.8;stroke-dasharray:none;stroke-dashoffset:0.989999;stroke-opacity:1"
         d="m 97.92506,110.39398 -0.649799,-0.41358 -0.124051,0.6377"
         id="path11-44" /><path
         style="fill:none;fill-opacity:1;stroke:#f4ac54;stroke-width:0.1;stroke-linecap:square;stroke-linejoin:miter;stroke-miterlimit:3.8;stroke-dasharray:none;stroke-dashoffset:0.989999;stroke-opacity:1"
         d="M 97.234699,110.22027 96.5849,109.8067 96.46085,110.4444"
         id="path11-1-4" /><path
         style="fill:none;fill-opacity:1;stroke:#f4ac54;stroke-width:0.1;stroke-linecap:square;stroke-linejoin:miter;stroke-miterlimit:3.8;stroke-dasharray:none;stroke-dashoffset:0.989999;stroke-opacity:1"
         d="m 96.472453,110.08471 -0.649799,-0.41357 -0.124051,0.6377"
         id="path11-15-4" /><path
         style="fill:none;fill-opacity:1;stroke:#f4ac54;stroke-width:0.1;stroke-linecap:square;stroke-linejoin:miter;stroke-miterlimit:3.8;stroke-dasharray:none;stroke-dashoffset:0.989999;stroke-opacity:1"
         d="m 95.718149,109.93944 -0.649799,-0.41357 -0.124051,0.6377"
         id="path11-6-7" /><path
         style="fill:none;fill-opacity:1;stroke:#f4ac54;stroke-width:0.1;stroke-linecap:square;stroke-linejoin:miter;stroke-miterlimit:3.8;stroke-dasharray:none;stroke-dashoffset:0.989999;stroke-opacity:1"
         d="m 96.614303,111.21475 -0.649799,-0.41357 -0.12405,0.6377"
         id="path11-5-6" /><path
         style="fill:none;fill-opacity:1;stroke:#f4ac54;stroke-width:0.1;stroke-linecap:square;stroke-linejoin:miter;stroke-miterlimit:3.8;stroke-dasharray:none;stroke-dashoffset:0.989999;stroke-opacity:1"
         d="m 95.417119,111.54638 -0.649799,-0.41358 -0.124051,0.6377"
         id="path11-4-3" /><path
         style="fill:none;fill-opacity:1;stroke:#f4ac54;stroke-width:0.1;stroke-linecap:square;stroke-linejoin:miter;stroke-miterlimit:3.8;stroke-dasharray:none;stroke-dashoffset:0.989999;stroke-opacity:1"
         d="m 95.897935,111.06863 -0.649799,-0.41357 -0.124051,0.6377"
         id="path11-9-17" /><path
         style="fill:none;fill-opacity:1;stroke:#f4ac54;stroke-width:0.1;stroke-linecap:square;stroke-linejoin:miter;stroke-miterlimit:3.8;stroke-dasharray:none;stroke-dashoffset:3.74173;stroke-opacity:1"
         d="m 97.018728,110.01682 c 0.329959,-0.52763 0.786973,-0.36684 0.250721,-0.88785 -0.536251,-0.521 -0.705321,-0.59602 -0.60616,-1.08153 0.09916,-0.48552 0.225111,-0.99991 -0.0059,-1.15503"
         id="path12" /><path
         style="fill:none;fill-opacity:1;stroke:#f4ac54;stroke-width:0.1;stroke-linecap:square;stroke-linejoin:miter;stroke-miterlimit:3.8;stroke-dasharray:none;stroke-dashoffset:3.74173;stroke-opacity:1"
         d="m 81.960643,106.45304 c 0.251865,0.0925 0.144059,0.18822 0.39924,0.50686 0.25518,0.31865 0.532857,0.39932 0.846739,0.57575 0.31388,0.17643 -0.08238,0.41958 0.414798,0.79251 0.497175,0.37292 1.111005,0.74243 1.111005,0.74243"
         id="path13" /></g><text
       xml:space="preserve"
       style="font-weight:bold;font-size:26.6804px;font-family:'Latin Modern Sans';-inkscape-font-specification:'Latin Modern Sans Bold';fill:#7b4708;fill-opacity:1;stroke:none;stroke-width:0;stroke-linecap:round;stroke-linejoin:round;stroke-opacity:1"
       x="7.3309388"
       y="21.486952"
       id="text1"><tspan
         sodipodi:role="line"
         id="tspan1"
         style="font-style:normal;font-variant:normal;font-weight:normal;font-stretch:normal;font-family:'Less Perfect DOS VGA';-inkscape-font-specification:'Less Perfect DOS VGA';fill:#7b4708;fill-opacity:1;stroke:none;stroke-width:0;stroke-opacity:1"
         x="7.3309388"
         y="21.486952">Ising Fantasy </tspan><tspan
         sodipodi:role="line"
         style="font-style:normal;font-variant:normal;font-weight:normal;font-stretch:normal;font-family:'Less Perfect DOS VGA';-inkscape-font-specification:'Less Perfect DOS VGA';fill:#7b4708;fill-opacity:1;stroke:none;stroke-width:0;stroke-opacity:1"
         x="7.3309388"
         y="56.331558"
         id="tspan15">Map Generator</tspan></text><g
       id="g17"
       transform="translate(178.15985,-55.008227)"
       style="stroke:#7b4708;stroke-opacity:1"><circle
         style="fill:#7b4708;fill-opacity:1;stroke:#7b4708;stroke-width:0.1;stroke-linecap:square;stroke-linejoin:miter;stroke-miterlimit:3.8;stroke-dasharray:none;stroke-dashoffset:3.74173;stroke-opacity:1"
         id="path15-5"
         cx="22.411249"
         cy="90.720856"
         r="8.234334" /><path
         style="fill:#2d1a03;fill-opacity:1;stroke:#7b4708;stroke-width:2.09092;stroke-linecap:square;stroke-linejoin:miter;stroke-miterlimit:3.8;stroke-dasharray:none;stroke-dashoffset:3.74173;stroke-opacity:1;marker-end:url(#Triangle)"
         d="M 14.201786,104.42088 30.181306,76.743532"
         id="path16" /></g><g
       id="g16"
       transform="translate(249.54134,-70.694044)"><circle
         style="fill:#f9b663;fill-opacity:1;stroke:none;stroke-width:0.1;stroke-linecap:square;stroke-linejoin:miter;stroke-miterlimit:3.8;stroke-dasharray:none;stroke-dashoffset:3.74173;stroke-opacity:1"
         id="path15-5-6"
         cx="46.112953"
         cy="-101.12725"
         r="8.234334"
         transform="scale(1,-1)" /><path
         style="fill:#2d1a03;fill-opacity:1;stroke:#f9b663;stroke-width:2.09092;stroke-linecap:square;stroke-linejoin:miter;stroke-miterlimit:3.8;stroke-dasharray:none;stroke-dashoffset:3.74173;stroke-opacity:1;marker-end:url(#Triangle-8)"
         d="m 37.903489,87.427226 15.97952,27.677344"
         id="path16-4" /></g></g></svg>
